<svg xmlns="http://www.w3.org/2000/svg" xmlns:xlink="http://www.w3.org/1999/xlink" width="56" height="56"
     viewBox="0 0 24 24" version="1.1">
    <title>icon-hive</title>
    <g id="ℹ️-Icons" stroke="none" stroke-width="1" fill="none" fill-rule="evenodd">
        <g id="Icon/-General/-Hive-Logo">
            <g id="icon-hive">
                <rect id="bg" x="0" y="0" width="24" height="24"/>
                <path d="M18.2015769,17.8396804 C18.440901,17.7734994 18.7617166,17.6615279 19.0264407,17.7378689 C19.3217858,17.8244404 19.5304888,18.099395 19.5304888,18.4150601 C19.5304888,18.7715062 19.3115552,18.9700492 19.0264407,19.0973312 C18.8176671,19.1940628 18.6598345,19.2500838 18.2015769,19.4079163 L18.2015769,19.4079163 L13.9144162,20.8998113 C12.6669959,21.3325984 11.3227735,21.3325984 10.0804332,20.8998113 L10.0804332,20.8998113 L5.79835253,19.4079163 C5.3400949,19.2500838 5.18226236,19.1940628 4.97348879,19.0973312 C4.68837423,18.9700492 4.46944067,18.7715062 4.46944067,18.4150601 C4.46944067,18.099395 4.67821424,17.8244404 4.97348879,17.7378689 C5.23828339,17.6615279 5.55902845,17.7734994 5.79835253,17.8396804 L5.79835253,17.8396804 L10.3044468,19.0566207 C11.4093451,19.3518953 12.5753444,19.3570458 13.6853227,19.0566207 L13.6853227,19.0566207 Z M20.18736,13.5851163 C20.4317641,13.5392553 20.7779796,13.4526838 21.0122237,13.5189353 C21.3074983,13.6054363 21.5162719,13.8803909 21.5162719,14.1961265 C21.5162719,14.5219516 21.3074983,14.7714356 21.0122237,14.8681671 C20.7779796,14.9445787 20.6099166,14.9802092 20.18736,15.0820207 L20.18736,15.0820207 L13.5121796,16.7215176 C12.5091634,16.9659217 11.4806061,16.9659217 10.4826698,16.7215176 L10.4826698,16.7215176 L3.81264001,15.0820207 C3.39001288,14.9802092 3.22202036,14.9445787 2.98777627,14.8681671 C2.69243116,14.7714356 2.48372815,14.5219516 2.48372815,14.1961265 C2.48372815,13.8803909 2.69243116,13.6054363 2.98777627,13.5189353 C3.22202036,13.4526838 3.56823594,13.5392553 3.81264001,13.5851163 L3.81264001,13.5851163 L11.022419,14.8733177 C11.6588291,14.9852892 12.3309403,14.9852892 12.967421,14.8733177 L12.967421,14.8733177 Z M20.6710176,9.80200377 C20.9205722,9.77653326 21.2617078,9.72051223 21.4958813,9.79177323 C21.7912264,9.87834477 22,10.1482194 22,10.4638844 C22,10.79486 21.7912264,11.0341841 21.4958813,11.1359956 C21.2617078,11.2174872 21.0987247,11.2378071 20.6710176,11.3039881 L20.6710176,11.3039881 L13.3136366,12.485298 C12.4480624,12.62274 11.5468576,12.62274 10.6812834,12.485298 L10.6812834,12.485298 L3.32891186,11.3039881 C2.90120473,11.2378071 2.73321221,11.2123366 2.50404812,11.1359956 C2.20877357,11.0341841 2,10.79486 2,10.4638844 C2,10.1482194 2.20877357,9.87834477 2.50404812,9.79177323 C2.73321221,9.72051223 3.0794278,9.77653326 3.32891186,9.80200377 L3.32891186,9.80200377 L11.0121885,10.5759265 C11.6588291,10.6421075 12.3309403,10.6421075 12.977581,10.5759265 L12.977581,10.5759265 Z M19.4808855,6.26605429 C19.7034456,6.26573369 19.9592401,6.27063306 20.1465789,6.32764186 C20.441924,6.41421339 20.6506976,6.68408798 20.6506976,6.99975306 C20.6506976,7.31541813 20.441924,7.58529272 20.1465789,7.67186425 C19.9124054,7.73804526 19.5712698,7.75328524 19.3217858,7.76859577 L19.3217858,7.76859577 L12.8044379,8.2319334 C12.2749193,8.2675639 11.7199302,8.2675639 11.1853315,8.2319334 L11.1853315,8.2319334 L4.67821424,7.76859577 C4.42873018,7.75328524 4.08759459,7.73804526 3.8533505,7.67186425 C3.5580054,7.58529272 3.34930238,7.31541813 3.34930238,6.99975306 C3.34930238,6.68408798 3.5580054,6.41421339 3.8533505,6.32764186 C4.08759459,6.25638086 4.42873018,6.26654084 4.67821424,6.26654084 Z M9.69858713,2.12980439 C11.231122,1.95673187 12.7586475,1.95673187 14.2912529,2.12980439 L14.2912529,2.12980439 L16.5875505,2.38951899 C16.8319546,2.41491895 17.1832501,2.43530947 17.4124142,2.50657048 C17.6465878,2.58298203 17.9164623,2.80191558 17.9164623,3.17868167 C17.9164623,3.50457728 17.7026088,3.76422133 17.4124142,3.85079287 C17.1781701,3.91697388 16.8319546,3.91189388 16.5875505,3.91189388 L7.25529318,3.91189276 C7.03401549,3.91107544 6.77492459,3.90373767 6.58758577,3.85079287 C6.29732066,3.76422133 6.08346709,3.50457728 6.08346709,3.17868167 C6.08346709,2.80191558 6.35334168,2.58298203 6.58758577,2.50657048 C6.81667931,2.43530947 7.16804544,2.41491895 7.41244951,2.38951899 L7.41244951,2.38951899 Z"
                      id="graphic" fill="#ffffff"/>
            </g>
        </g>
    </g>
</svg>
