<svg xmlns="http://www.w3.org/2000/svg" width="256" height="256" viewBox="0 0 100 100"><rect width="100" height="100" rx="50" fill="#7d6ee7"></rect><path fill="#fff" d="M25.45 56.45L29.88 51.42L41.91 69.91L48.06 69.91L33.21 47.51L47.13 30.09L40.98 30.09L29.30 44.72L25.45 49.54L25.45 30.09L20.28 30.09L20.28 69.91L25.45 69.91L25.45 56.45ZM79.72 57.93L79.72 57.93L74.66 57.93Q74.42 59.73 73.82 61.28Q73.21 62.82 72.20 63.95L72.20 63.95Q71.19 65.09 69.73 65.72Q68.27 66.35 66.27 66.35L66.27 66.35Q64.44 66.35 63.07 65.76Q61.70 65.18 60.69 64.14L60.69 64.14Q59.68 63.13 59.02 61.79Q58.37 60.45 57.96 58.91L57.96 58.91Q57.55 57.41 57.37 55.84Q57.19 54.27 57.19 52.79L57.19 52.79L57.19 47.18Q57.19 45.71 57.37 44.13Q57.55 42.56 57.96 41.06L57.96 41.06Q58.37 39.55 59.04 38.21Q59.71 36.88 60.72 35.86L60.72 35.86Q61.70 34.85 63.08 34.26Q64.46 33.68 66.27 33.68L66.27 33.68Q68.27 33.68 69.73 34.35Q71.19 35.02 72.20 36.19L72.20 36.19Q73.21 37.37 73.82 38.93Q74.42 40.48 74.66 42.29L74.66 42.29L79.72 42.29Q79.39 39.45 78.37 37.09Q77.34 34.74 75.65 33.05L75.65 33.05Q73.95 31.38 71.60 30.46Q69.25 29.55 66.27 29.55L66.27 29.55Q63.78 29.55 61.79 30.24Q59.79 30.94 58.23 32.17L58.23 32.17Q56.64 33.40 55.51 35.08Q54.38 36.77 53.64 38.73L53.64 38.73Q52.87 40.70 52.50 42.86Q52.13 45.02 52.11 47.24L52.11 47.24L52.11 52.79Q52.13 55.00 52.50 57.16Q52.87 59.32 53.64 61.29L53.64 61.29Q54.38 63.26 55.51 64.93Q56.64 66.60 58.23 67.83L58.23 67.83Q59.79 69.06 61.80 69.76Q63.81 70.45 66.27 70.45L66.27 70.45Q69.14 70.45 71.48 69.54Q73.82 68.62 75.54 66.95L75.54 66.95Q77.23 65.31 78.30 63.00Q79.37 60.69 79.72 57.93Z"></path></svg>
