<svg xmlns="http://www.w3.org/2000/svg" width="256" height="256" viewBox="0 0 100 100"><rect width="100" height="100" rx="50" fill="#ffa927"></rect><path fill="#fff" d="M36.77 56.84L36.77 77.36Q36.23 77.54 35.33 77.77Q34.43 77.99 33.35 77.99L33.35 77.99Q29.39 77.99 29.39 74.66L29.39 74.66L29.39 26.78Q29.39 25.34 30.11 24.58Q30.83 23.81 32.36 23.36L32.36 23.36Q34.97 22.55 38.80 22.19Q42.62 21.83 46.22 21.83L46.22 21.83Q57.56 21.83 63.09 26.38Q68.63 30.92 68.63 39.29L68.63 39.29Q68.63 45.50 65.44 49.73Q62.24 53.96 55.76 55.76L55.76 55.76Q58.01 58.64 60.26 61.52Q62.51 64.40 64.53 66.97Q66.56 69.53 68.13 71.60Q69.71 73.67 70.61 74.84L70.61 74.84Q70.25 76.37 69.03 77.27Q67.82 78.17 66.56 78.17L66.56 78.17Q65.03 78.17 64.04 77.45Q63.05 76.73 61.97 75.20L61.97 75.20L48.83 56.84L36.77 56.84ZM36.68 50.72L47.03 50.72Q53.69 50.72 57.47 47.84Q61.25 44.96 61.25 39.29L61.25 39.29Q61.25 33.62 57.29 30.79Q53.33 27.95 45.95 27.95L45.95 27.95Q43.52 27.95 41.05 28.18Q38.57 28.40 36.68 28.76L36.68 28.76L36.68 50.72Z"></path></svg>