<svg xmlns="http://www.w3.org/2000/svg" xmlns:xlink="http://www.w3.org/1999/xlink" viewBox="0 0 591 211"><g fill="none" fill-rule="evenodd"><use xlink:href="#B" fill="#7eb2dd"/><g fill="#e6e6dc"><rect x="45" y="10" width="30" height="30" rx="8"/><rect x="45" y="46" width="30" height="30" rx="8"/><rect x="45" y="82" width="30" height="30" rx="8"/><rect x="45" y="118" width="30" height="30" rx="8"/></g><g fill="#1c8db2"><rect x="9" y="10" width="30" height="30" rx="8"/><rect x="9" y="46" width="30" height="30" rx="8"/><rect x="9" y="82" width="30" height="30" rx="8"/><rect x="9" y="118" width="30" height="30" rx="8"/><rect x="135" y="152" width="30" height="30" rx="8"/><rect transform="matrix(.838671 .544639 -.544639 .838671 137.993646 -81.975962)" x="204.75" y="156.75" width="30" height="30" rx="8"/></g><g fill="#e6e6dc"><rect x="81" y="10" width="30" height="30" rx="8"/><rect x="81" y="46" width="30" height="30" rx="8"/><rect x="81" y="82" width="30" height="30" rx="8"/><rect x="81" y="118" width="30" height="30" rx="8"/><rect x="117" y="10" width="30" height="30" rx="8"/><rect x="117" y="46" width="30" height="30" rx="8"/><rect x="117" y="82" width="30" height="30" rx="8"/><rect x="117" y="118" width="30" height="30" rx="8"/><rect x="153" y="10" width="30" height="30" rx="8"/><rect x="153" y="46" width="30" height="30" rx="8"/><rect x="153" y="82" width="30" height="30" rx="8"/><rect x="153" y="118" width="30" height="30" rx="8"/><rect x="189" y="10" width="30" height="30" rx="8"/><rect x="189" y="46" width="30" height="30" rx="8"/><rect x="189" y="82" width="30" height="30" rx="8"/><rect x="189" y="118" width="30" height="30" rx="8"/></g><g fill="#c43060"><rect x="171" y="152" width="30" height="30" rx="8"/><rect transform="matrix(.838671 .544639 -.544639 .838671 194.698457 94.995351)" x="61" y="6" width="30" height="30" rx="8"/></g><g transform="matrix(-1 0 0 1 591 0)"><use xlink:href="#B" fill="#7eb2dd"/><g fill="#e6e6dc"><rect x="45" y="10" width="30" height="30" rx="8"/><rect x="45" y="46" width="30" height="30" rx="8"/><rect x="45" y="82" width="30" height="30" rx="8"/><rect x="45" y="118" width="30" height="30" rx="8"/></g><g fill="#1c8db2"><rect x="9" y="10" width="30" height="30" rx="8"/><rect x="9" y="46" width="30" height="30" rx="8"/><rect x="9" y="82" width="30" height="30" rx="8"/><rect x="9" y="118" width="30" height="30" rx="8"/><rect x="135" y="152" width="30" height="30" rx="8"/><rect transform="matrix(.838671 .544639 -.544639 .838671 137.993646 -81.975962)" x="204.75" y="156.75" width="30" height="30" rx="8"/></g><g fill="#e6e6dc"><rect x="81" y="10" width="30" height="30" rx="8"/><rect x="81" y="46" width="30" height="30" rx="8"/><rect x="81" y="82" width="30" height="30" rx="8"/><rect x="81" y="118" width="30" height="30" rx="8"/><rect x="117" y="10" width="30" height="30" rx="8"/><rect x="117" y="46" width="30" height="30" rx="8"/><rect x="117" y="82" width="30" height="30" rx="8"/><rect x="117" y="118" width="30" height="30" rx="8"/><rect x="153" y="10" width="30" height="30" rx="8"/><rect x="153" y="46" width="30" height="30" rx="8"/><rect x="153" y="82" width="30" height="30" rx="8"/><rect x="153" y="118" width="30" height="30" rx="8"/><rect x="189" y="10" width="30" height="30" rx="8"/><rect x="189" y="46" width="30" height="30" rx="8"/><rect x="189" y="82" width="30" height="30" rx="8"/><rect x="189" y="118" width="30" height="30" rx="8"/></g><g fill="#c43060"><rect x="171" y="152" width="30" height="30" rx="8"/><rect transform="matrix(.838671 .544639 -.544639 .838671 194.698457 94.995351)" x="61" y="6" width="30" height="30" rx="8"/></g></g></g><defs ><path id="B" d="M228 111.683l21.447 13.928-.07.108 25.747 16.72a8 8 0 0 1 2.352 11.066L242.62 207.18a8 8 0 0 1-11.066 2.352l-27-17.533H136a8 8 0 0 1-8-8v-20H8a8 8 0 0 1-8-8V8a8 8 0 0 1 8-8h212a8 8 0 0 1 8 8v103.683z"/></defs></svg>