<svg viewBox="0 0 591 211" xmlns="http://www.w3.org/2000/svg"><g fill="none" fill-rule="evenodd"><path d="M228 111.683l21.447 13.928-.07.108 25.747 16.72a8 8 0 0 1 2.352 11.067l-34.857 53.675a8 8 0 0 1-11.066 2.352l-27-17.533H136a8 8 0 0 1-8-8v-20H8a8 8 0 0 1-8-8V8a8 8 0 0 1 8-8h212a8 8 0 0 1 8 8v103.683z" fill="#00384D"/><g transform="translate(9 10)"><rect fill="#E6E6DC" x="36" width="30" height="30" rx="8"/><rect fill="#E6E6DC" x="36" y="36" width="30" height="30" rx="8"/><rect fill="#E6E6DC" x="36" y="72" width="30" height="30" rx="8"/><rect fill="#E6E6DC" x="36" y="108" width="30" height="30" rx="8"/><g fill="#1C8DB2"><rect width="30" height="30" rx="8"/><rect y="36" width="30" height="30" rx="8"/><rect y="72" width="30" height="30" rx="8"/><rect y="108" width="30" height="30" rx="8"/><rect x="126" y="142" width="30" height="30" rx="8"/><rect transform="rotate(33 219.75 171.75)" x="204.75" y="156.75" width="30" height="30" rx="8"/></g><rect fill="#E6E6DC" x="72" width="30" height="30" rx="8"/><rect fill="#E6E6DC" x="72" y="36" width="30" height="30" rx="8"/><rect fill="#E6E6DC" x="72" y="72" width="30" height="30" rx="8"/><rect fill="#E6E6DC" x="72" y="108" width="30" height="30" rx="8"/><rect fill="#E6E6DC" x="108" width="30" height="30" rx="8"/><rect fill="#E6E6DC" x="108" y="36" width="30" height="30" rx="8"/><rect fill="#E6E6DC" x="108" y="72" width="30" height="30" rx="8"/><rect fill="#E6E6DC" x="108" y="108" width="30" height="30" rx="8"/><rect fill="#E6E6DC" x="144" width="30" height="30" rx="8"/><rect fill="#E6E6DC" x="144" y="36" width="30" height="30" rx="8"/><rect fill="#E6E6DC" x="144" y="72" width="30" height="30" rx="8"/><rect fill="#E6E6DC" x="144" y="108" width="30" height="30" rx="8"/><rect fill="#E6E6DC" x="180" width="30" height="30" rx="8"/><rect fill="#E6E6DC" x="180" y="36" width="30" height="30" rx="8"/><rect fill="#E6E6DC" x="180" y="72" width="30" height="30" rx="8"/><rect fill="#E6E6DC" x="180" y="108" width="30" height="30" rx="8"/><g transform="translate(162 123)" fill="#C43060"><rect y="19" width="30" height="30" rx="8"/><rect transform="rotate(33 76 21)" x="61" y="6" width="30" height="30" rx="8"/></g></g><g><path d="M363 111.683l-21.447 13.928.07.108-25.747 16.72a8 8 0 0 0-2.352 11.067l34.857 53.675a8 8 0 0 0 11.066 2.352l27-17.533H455a8 8 0 0 0 8-8v-20h120a8 8 0 0 0 8-8V8a8 8 0 0 0-8-8H371a8 8 0 0 0-8 8v103.683z" fill="#00384D"/><g transform="matrix(-1 0 0 1 582 10)"><rect fill="#E6E6DC" x="36" width="30" height="30" rx="8"/><rect fill="#E6E6DC" x="36" y="36" width="30" height="30" rx="8"/><rect fill="#E6E6DC" x="36" y="72" width="30" height="30" rx="8"/><rect fill="#E6E6DC" x="36" y="108" width="30" height="30" rx="8"/><g fill="#1C8DB2"><rect width="30" height="30" rx="8"/><rect y="36" width="30" height="30" rx="8"/><rect y="72" width="30" height="30" rx="8"/><rect y="108" width="30" height="30" rx="8"/><rect x="126" y="142" width="30" height="30" rx="8"/><rect transform="rotate(33 219.75 171.75)" x="204.75" y="156.75" width="30" height="30" rx="8"/></g><rect fill="#E6E6DC" x="72" width="30" height="30" rx="8"/><rect fill="#E6E6DC" x="72" y="36" width="30" height="30" rx="8"/><rect fill="#E6E6DC" x="72" y="72" width="30" height="30" rx="8"/><rect fill="#E6E6DC" x="72" y="108" width="30" height="30" rx="8"/><rect fill="#E6E6DC" x="108" width="30" height="30" rx="8"/><rect fill="#E6E6DC" x="108" y="36" width="30" height="30" rx="8"/><rect fill="#E6E6DC" x="108" y="72" width="30" height="30" rx="8"/><rect fill="#E6E6DC" x="108" y="108" width="30" height="30" rx="8"/><rect fill="#E6E6DC" x="144" width="30" height="30" rx="8"/><rect fill="#E6E6DC" x="144" y="36" width="30" height="30" rx="8"/><rect fill="#E6E6DC" x="144" y="72" width="30" height="30" rx="8"/><rect fill="#E6E6DC" x="144" y="108" width="30" height="30" rx="8"/><rect fill="#E6E6DC" x="180" width="30" height="30" rx="8"/><rect fill="#E6E6DC" x="180" y="36" width="30" height="30" rx="8"/><rect fill="#E6E6DC" x="180" y="72" width="30" height="30" rx="8"/><rect fill="#E6E6DC" x="180" y="108" width="30" height="30" rx="8"/><g transform="translate(162 123)" fill="#C43060"><rect y="19" width="30" height="30" rx="8"/><rect transform="rotate(33 76 21)" x="61" y="6" width="30" height="30" rx="8"/></g></g></g></g></svg>
